<svg width="24" height="24" viewBox="0 0 24 24" fill="none" xmlns="http://www.w3.org/2000/svg">
<path d="M12 24C18.6274 24 24 18.6274 24 12C24 5.37258 18.6274 0 12 0C5.37258 0 0 5.37258 0 12C0 18.6274 5.37258 24 12 24Z" fill="url(#paint0_linear)"/>
<path d="M17.5642 6.231C16.1304 6.4125 14.6355 6.40617 13.131 6.26292C11.03 6.10129 7.95927 5.13159 6.82794 7.071C5.01051 10.1758 5.9069 14.1508 6.33041 17.6684L12.6462 23.9828C18.7581 23.6583 23.6565 18.7606 23.982 12.6489L17.5642 6.231Z" fill="#501A96" fill-opacity="0.25"/>
<path d="M14.7763 5.13135H9.22372C6.96716 5.13135 5.13135 6.96716 5.13135 9.22372V14.7763C5.13135 17.0328 6.96716 18.8687 9.22377 18.8687H14.7764C17.0328 18.8687 18.8688 17.0329 18.8688 14.7763V9.22372C18.8687 6.96716 17.0329 5.13135 14.7763 5.13135ZM17.4868 14.7764C17.4868 16.2733 16.2733 17.4868 14.7764 17.4868H9.22377C7.72686 17.4868 6.51336 16.2733 6.51336 14.7764V9.22377C6.51336 7.72686 7.72686 6.51332 9.22377 6.51332H14.7764C16.2733 6.51332 17.4868 7.72691 17.4868 9.22377V14.7764Z" fill="white"/>
<path d="M12.0003 8.44678C10.0412 8.44678 8.44727 10.0407 8.44727 11.9998C8.44727 13.9588 10.0412 15.5527 12.0003 15.5527C13.9594 15.5527 15.5532 13.9589 15.5532 11.9998C15.5532 10.0407 13.9594 8.44678 12.0003 8.44678ZM12.0003 14.1707C10.8013 14.1707 9.82924 13.1989 9.82924 11.9998C9.82924 10.8007 10.8013 9.82875 12.0003 9.82875C13.1993 9.82875 14.1712 10.8007 14.1712 11.9998C14.1712 13.1988 13.1993 14.1707 12.0003 14.1707Z" fill="white"/>
<path d="M16.4113 8.47395C16.4113 8.94411 16.0301 9.32534 15.5599 9.32534C15.0897 9.32534 14.7085 8.94411 14.7085 8.47395C14.7085 8.00375 15.0897 7.62256 15.5599 7.62256C16.0302 7.62256 16.4113 8.00365 16.4113 8.47395Z" fill="#D1D1D1"/>
<path d="M14.7764 5.13135H11.9731V6.51332H14.7764C16.2733 6.51332 17.4868 7.72691 17.4868 9.22377V14.7764C17.4868 16.2733 16.2733 17.4868 14.7764 17.4868H11.9731V18.8687H14.7764C17.0328 18.8687 18.8687 17.0329 18.8687 14.7763V9.22372C18.8687 6.96716 17.0329 5.13135 14.7764 5.13135Z" fill="#D1D1D1"/>
<path d="M12.0001 8.44678C11.991 8.44678 11.9822 8.44743 11.9731 8.44743V9.8294C11.9821 9.82931 11.991 9.82875 12.0001 9.82875C13.1991 9.82875 14.171 10.8007 14.171 11.9998C14.171 13.1988 13.1991 14.1707 12.0001 14.1707C11.991 14.1707 11.9821 14.1702 11.9731 14.1701V15.552C11.9822 15.5521 11.991 15.5527 12.0001 15.5527C13.9591 15.5527 15.5529 13.9589 15.5529 11.9998C15.5529 10.0407 13.9591 8.44678 12.0001 8.44678Z" fill="#D1D1D1"/>
<defs>
<linearGradient id="paint0_linear" x1="1.6114" y1="22.4364" x2="23.849" y2="3.18621" gradientUnits="userSpaceOnUse">
<stop stop-color="#FFDD55"/>
<stop offset="0.5" stop-color="#FF543E"/>
<stop offset="1" stop-color="#C837AB"/>
</linearGradient>
</defs>
</svg>
