<svg width="26" height="24" viewBox="0 0 26 24" fill="none" xmlns="http://www.w3.org/2000/svg">
<path fill-rule="evenodd" clip-rule="evenodd" d="M13.8846 0.318047L24.892 7.79119C25.553 8.24005 25.8275 9.05726 25.5645 9.79653L21.1364 22.254C20.8845 22.9611 20.1957 23.4446 19.422 23.4446H5.95126C5.16453 23.4446 4.46736 22.9453 4.2259 22.2209L0.0874459 9.78226C-0.156116 9.05115 0.120968 8.24973 0.77099 7.808L11.802 0.318556C12.4269 -0.105846 13.2597 -0.106355 13.8846 0.318047Z" fill="#FFD24D"/>
<path fill-rule="evenodd" clip-rule="evenodd" d="M16.0364 7.9111L23.5386 13.0045C23.9891 13.3104 24.1762 13.8674 23.997 14.3712L20.979 22.8617C20.8072 23.3437 20.3378 23.6732 19.8105 23.6732H10.6293C10.0931 23.6732 9.61797 23.3329 9.4534 22.8391L6.63279 14.3615C6.46679 13.8632 5.8982 8.21251 6.34123 7.91145H14.617C15.0429 7.6222 15.6105 7.62185 16.0364 7.9111Z" fill="#DEC16C"/>
<path fill-rule="evenodd" clip-rule="evenodd" d="M15.8321 16.9565L15.1449 17.6193C15.0857 17.6758 14.9909 17.6758 14.9317 17.6193L13.0005 15.7589C12.9418 15.7018 12.9413 15.6106 13 15.5541L13.2027 15.3569L13.0026 15.17L12.8146 14.7135L9.87038 17.5388C9.7651 17.6402 9.59487 17.6397 9.48959 17.5388L8.69658 16.7747C8.5913 16.6728 8.5913 16.5077 8.69658 16.4074L11.5329 13.687L10.9033 13.0982C9.94213 13.8801 8.50487 13.8562 7.57254 13.0014C6.5742 12.0854 6.93142 11.8027 6.14941 8.2036C8.15865 8.63101 10.0176 8.59993 11.0164 9.51639C11.9802 10.4002 12.0483 11.847 11.1987 12.8119L11.8299 13.4013L12.8711 13.7752L13.1126 14.4053L13.1184 14.4216L13.2938 14.8801L13.4981 15.0706L13.6856 14.8888C13.7443 14.8322 13.8396 14.8322 13.8988 14.8888L15.8321 16.7523C15.8908 16.8083 15.8908 16.9 15.8321 16.9565ZM17.8073 12.817L16.8996 11.5892L16.9671 11.525L16.8734 11.4109C16.5727 11.5551 16.2307 11.5841 15.9002 11.4807L14.3325 12.9907C14.1685 13.1486 14.0654 13.3554 14.0402 13.577L13.539 14.0605L13.2006 13.4868L12.1525 13.1063L12.8518 12.4318C13.0822 12.4079 13.2975 12.3085 13.4604 12.1506L15.0286 10.6412C14.9438 10.3911 14.938 10.1292 15.0087 9.88521L14.3948 9.4741L13.9732 8.14552L14.1319 7.99219L15.511 8.39871L15.94 8.9927C16.3836 8.87298 16.8786 8.97028 17.2254 9.29275C17.6522 9.6901 17.7481 10.2907 17.5134 10.7798L17.6397 10.876L17.7078 10.8113C17.7078 10.8113 18.7139 11.4288 18.9811 11.6865C18.7553 12.467 17.8073 12.817 17.8073 12.817Z" fill="#262626"/>
</svg>
