<svg width="24" height="24" viewBox="0 0 24 24" fill="none" xmlns="http://www.w3.org/2000/svg">
<g clip-path="url(#clip0)">
<path d="M11.9999 24.0007C18.6272 24.0007 23.9997 18.6282 23.9997 12.0008C23.9997 5.3735 18.6272 0.000976562 11.9999 0.000976562C5.37252 0.000976562 0 5.3735 0 12.0008C0 18.6282 5.37252 24.0007 11.9999 24.0007Z" fill="#41B4E6"/>
<path d="M23.9999 12.0004C23.9999 11.7079 23.9889 11.4182 23.9684 11.131L18.995 6.15771L5.00488 11.6608L10.3576 17.0135L10.4278 17.2663L10.5187 17.1747L10.5191 17.175L10.4278 17.2663L16.3489 23.1874C20.8264 21.4455 23.9999 17.0938 23.9999 12.0004Z" fill="#0091C8"/>
<path d="M10.8346 13.7487L16.2576 17.843L18.9951 6.15771L5.00488 11.6608L9.26193 13.0708L17.0311 7.85947L10.8346 13.7487Z" fill="white"/>
<path d="M9.26172 13.0707L10.4276 17.2662L10.8344 13.7486L17.0309 7.85938L9.26172 13.0707Z" fill="#D2D2D7"/>
<path d="M12.597 15.0792L10.4277 17.2662L10.8345 13.7485L12.597 15.0792Z" fill="#B9B9BE"/>
</g>
<defs>
<clipPath id="clip0">
<rect width="24" height="24" fill="white"/>
</clipPath>
</defs>
</svg>
