<svg width="43" height="43" viewBox="0 0 43 43" fill="none" xmlns="http://www.w3.org/2000/svg">
<g clip-path="url(#clip0)">
<path d="M21.5001 40.6401C32.0488 40.6401 40.6608 32.2786 40.6608 21.8901C40.6608 11.5017 32.0488 3.14014 21.5001 3.14014C10.9514 3.14014 2.33936 11.5017 2.33936 21.8901C2.33936 32.2786 10.9514 40.6401 21.5001 40.6401Z" fill="url(#paint0_linear)" stroke="white" stroke-width="3"/>
<path d="M20.8977 8.76207C14.3445 9.06657 9.17319 14.3973 9.19293 20.8052C9.19897 22.7568 9.68138 24.599 10.5325 26.227L9.22593 32.4215C9.1553 32.7567 9.4647 33.0501 9.80551 32.9712L16.0199 31.5332C17.6166 32.3101 19.4099 32.7587 21.3078 32.787C28.0058 32.887 33.5906 27.6924 33.7996 21.1526C34.0232 14.1423 28.0997 8.42697 20.8977 8.76207ZM28.313 27.4233C26.4931 29.2008 24.0732 30.1799 21.4993 30.1799C19.9923 30.1799 18.5493 29.8495 17.2106 29.1983L16.3454 28.7771L12.535 29.6587L13.337 25.8561L12.9107 25.0404C12.2157 23.711 11.8633 22.2737 11.8633 20.7679C11.8633 18.2538 12.8656 15.8904 14.6855 14.1127C16.4892 12.3509 18.9485 11.3561 21.4995 11.3561C24.0731 11.3561 26.493 12.3352 28.3129 14.1127C30.1328 15.8903 31.1351 18.2539 31.1351 20.7677C31.1353 23.2595 30.1167 25.6615 28.313 27.4233Z" fill="white"/>
<path d="M27.4727 23.3746L25.0889 22.7062C24.7757 22.6185 24.4381 22.7054 24.2097 22.9326L23.6267 23.5125C23.381 23.7573 23.0081 23.8358 22.6827 23.7073C21.5551 23.2615 19.1829 21.2014 18.5775 20.1712C18.4025 19.874 18.4314 19.5025 18.6461 19.231L19.1549 18.588C19.3543 18.3361 19.3962 17.9976 19.2645 17.7064L18.2616 15.4909C18.0214 14.9603 17.3272 14.8058 16.8736 15.1805C16.2084 15.7302 15.419 16.5652 15.3232 17.4905C15.1539 19.1218 15.8703 21.1781 18.5786 23.6473C21.7076 26.5002 24.2134 26.8768 25.8452 26.4908C26.7706 26.2721 27.5101 25.3945 27.9766 24.6758C28.295 24.1855 28.0434 23.5349 27.4727 23.3746Z" fill="white"/>
</g>
<defs>
<linearGradient id="paint0_linear" x1="21.5001" y1="4.64014" x2="21.5001" y2="39.1401" gradientUnits="userSpaceOnUse">
<stop stop-color="#9FFF4B"/>
<stop offset="1" stop-color="#5BB80A"/>
</linearGradient>
<clipPath id="clip0">
<rect width="43" height="42" fill="white" transform="translate(0 0.890137)"/>
</clipPath>
</defs>
</svg>
