<svg width="25" height="25" viewBox="0 0 25 25" fill="none" xmlns="http://www.w3.org/2000/svg">
<g clip-path="url(#clip0)">
<path d="M12.898 24.3283C19.5546 24.3283 24.9509 18.9321 24.9509 12.2755C24.9509 5.61889 19.5546 0.222656 12.898 0.222656C6.24145 0.222656 0.845215 5.61889 0.845215 12.2755C0.845215 18.9321 6.24145 24.3283 12.898 24.3283Z" fill="#75B73B"/>
<path d="M17.8055 7.37122C17.1067 7.19646 16.079 6.59287 15.4138 6.35092C12.8166 5.53929 9.32652 6.18859 8.35254 9.19167C8.27137 9.27284 8.10904 9.27284 8.02787 9.27284C6.07993 11.5454 7.37857 14.305 7.21623 16.8211C7.16082 17.708 6.69443 18.4923 6.09424 19.1557L11.1452 24.2014C11.7174 24.2848 12.3024 24.3287 12.8977 24.3287C18.8505 24.3287 23.7948 20.013 24.7739 14.3399L17.8055 7.37122Z" fill="#52891D"/>
<path d="M12.5602 5.32885C8.88654 5.50361 5.9875 8.56315 5.99857 12.2409C6.00196 13.3611 6.27239 14.4184 6.74951 15.3528L6.01707 18.9081C5.97747 19.1004 6.15092 19.2688 6.34198 19.2235L9.82576 18.3982C10.7208 18.8441 11.7262 19.1016 12.7901 19.1178C16.545 19.1752 19.6758 16.1938 19.793 12.4403C19.9183 8.41682 16.5977 5.13652 12.5602 5.32885ZM16.7172 16.0393C15.697 17.0595 14.3404 17.6215 12.8975 17.6215C12.0527 17.6215 11.2437 17.4319 10.4932 17.0581L10.0082 16.8164L7.87212 17.3224L8.3217 15.1399L8.08276 14.6717C7.69312 13.9087 7.49557 13.0838 7.49557 12.2195C7.49557 10.7766 8.05748 9.42012 9.07769 8.39982C10.0888 7.38861 11.4675 6.8177 12.8976 6.8177C14.3403 6.8177 15.6969 7.37962 16.7172 8.39982C17.7374 9.42003 18.2993 10.7766 18.2993 12.2194C18.2994 13.6495 17.7284 15.0282 16.7172 16.0393Z" fill="white"/>
<path d="M16.246 13.7155L14.9096 13.3318C14.734 13.2815 14.5448 13.3313 14.4167 13.4618L14.0899 13.7946C13.9521 13.9351 13.7431 13.9802 13.5607 13.9064C12.9286 13.6505 11.5987 12.4682 11.2593 11.8769C11.1612 11.7063 11.1775 11.4931 11.2978 11.3373L11.583 10.9682C11.6948 10.8236 11.7183 10.6293 11.6445 10.4622L11.0823 9.19064C10.9476 8.88611 10.5584 8.79741 10.3041 9.01248C9.93121 9.32797 9.48869 9.80721 9.43497 10.3383C9.3401 11.2746 9.74171 12.4548 11.2599 13.872C13.0141 15.5094 14.4188 15.7255 15.3336 15.504C15.8524 15.3784 16.2669 14.8748 16.5284 14.4623C16.7069 14.1809 16.5659 13.8074 16.246 13.7155Z" fill="white"/>
<path d="M17.6058 7.17725L16.5595 8.24967C16.6127 8.29887 16.6658 8.34835 16.7173 8.3999C17.7375 9.42011 18.2994 10.7767 18.2994 12.2195C18.2994 13.6496 17.7284 15.0282 16.7173 16.0394C15.6971 17.0596 14.3405 17.6215 12.8976 17.6215C12.0527 17.6215 11.2438 17.4319 10.4933 17.0581L10.0083 16.8164L7.87219 17.3224L7.91635 17.108L6.0249 19.0465C6.06662 19.1718 6.19934 19.2572 6.34195 19.2234L9.82573 18.3981C10.7208 18.844 11.7261 19.1014 12.7901 19.1176C16.5449 19.175 19.6759 16.1937 19.793 12.4401C19.8577 10.3623 19.0033 8.48267 17.6058 7.17725Z" fill="#D1D1D1"/>
<path d="M16.246 13.7156L14.9097 13.3319C14.7341 13.2816 14.5449 13.3314 14.4168 13.4618L14.09 13.7947C13.9522 13.9352 13.7432 13.9803 13.5608 13.9065C13.1957 13.7587 12.598 13.3017 12.0926 12.8281L11.1636 13.7803C11.1954 13.8109 11.2272 13.8413 11.2601 13.8721C13.0142 15.5094 14.419 15.7256 15.3337 15.5041C15.8525 15.3785 16.2671 14.8748 16.5286 14.4624C16.707 14.181 16.566 13.8075 16.246 13.7156Z" fill="#D1D1D1"/>
</g>
<defs>
<clipPath id="clip0">
<rect width="24.1057" height="24.1057" fill="white" transform="translate(0.845215 0.222656)"/>
</clipPath>
</defs>
</svg>
