<svg width="30" height="31" viewBox="0 0 30 31" fill="none" xmlns="http://www.w3.org/2000/svg">
<path d="M14.9999 8.02441L4.30051 16.8449C4.30051 16.8574 4.29738 16.8757 4.29112 16.9006C4.285 16.9254 4.28174 16.9434 4.28174 16.9562V25.8879C4.28174 26.2103 4.39964 26.4898 4.63538 26.7252C4.87105 26.9606 5.15013 27.0791 5.47268 27.0791H12.6178V19.9336H17.3819V27.0794H24.527C24.8495 27.0794 25.129 26.9612 25.3643 26.7252C25.6001 26.4901 25.7184 26.2104 25.7184 25.8879V16.9562C25.7184 16.9066 25.7116 16.8692 25.6996 16.8449L14.9999 8.02441Z" fill="#169CD8"/>
<path d="M29.793 14.8352L25.7182 11.4486V3.8565C25.7182 3.68294 25.6624 3.54021 25.5504 3.4285C25.4393 3.31692 25.2966 3.26113 25.1227 3.26113H21.55C21.3763 3.26113 21.2336 3.31692 21.1218 3.4285C21.0103 3.54021 20.9546 3.68301 20.9546 3.8565V7.48501L16.4143 3.68887C16.0178 3.36632 15.5463 3.20508 15.0004 3.20508C14.4546 3.20508 13.9832 3.36632 13.5863 3.68887L0.206772 14.8352C0.0827436 14.9343 0.0147659 15.0676 0.00212194 15.2351C-0.0104569 15.4025 0.0328846 15.5487 0.132277 15.6726L1.28594 17.0497C1.38533 17.1612 1.51542 17.2295 1.67673 17.2544C1.82566 17.267 1.97458 17.2234 2.12351 17.1242L15 6.38713L27.8767 17.1242C27.9762 17.2107 28.1062 17.2539 28.2675 17.2539H28.3234C28.4845 17.2294 28.6143 17.1607 28.7142 17.0494L29.868 15.6726C29.9672 15.5484 30.0107 15.4024 29.9978 15.2349C29.985 15.0678 29.9168 14.9345 29.793 14.8352Z" fill="#169CD8"/>
</svg>
