<svg width="27" height="27" viewBox="0 0 27 27" fill="none" xmlns="http://www.w3.org/2000/svg">
<g clip-path="url(#clip0)">
<path d="M21.7075 6.21178C19.5015 4.00117 16.5682 2.78369 13.4482 2.78369C10.3281 2.78369 7.39491 4.00117 5.18888 6.21178C2.98324 8.42198 1.76855 11.3605 1.76855 14.486C1.76855 17.6115 2.98324 20.5501 5.18888 22.7603C7.39491 24.9709 10.3281 26.1884 13.4482 26.1884C16.5682 26.1884 19.5015 24.9709 21.7075 22.7603C23.9131 20.5501 25.1278 17.6115 25.1278 14.486C25.1278 11.3605 23.9131 8.42198 21.7075 6.21178Z" fill="#0088B3"/>
<path d="M13.4482 2.78369C10.3281 2.78369 7.39491 4.00117 5.18888 6.21178C2.98324 8.42198 1.76855 11.3605 1.76855 14.486C1.76855 17.6115 2.98324 20.5501 5.18888 22.7603C7.39491 24.9709 10.3281 26.1884 13.4482 26.1884V2.78369Z" fill="#0088B3"/>
<path d="M13.4483 5.7002C8.61302 5.7002 4.6792 9.64153 4.6792 14.4861C4.6792 19.3307 8.61302 23.2721 13.4483 23.2721C18.2836 23.2721 22.2174 19.3307 22.2174 14.4861C22.2174 9.64153 18.2836 5.7002 13.4483 5.7002Z" fill="#F4F2E6"/>
<path d="M13.4483 5.7002C8.61302 5.7002 4.6792 9.64153 4.6792 14.4861C4.6792 19.3307 8.61302 23.2721 13.4483 23.2721V5.7002Z" fill="#F4F2E6"/>
<path d="M13.4482 7.60287C13.8689 7.60287 14.21 7.26182 14.21 6.84115V5.73371C13.9588 5.71198 13.7049 5.7002 13.4482 5.7002C13.1916 5.7002 12.9376 5.71198 12.6865 5.73371V6.84115C12.6865 7.26182 13.0276 7.60287 13.4482 7.60287Z" fill="#105C6E"/>
<path d="M13.4482 21.3691C13.0276 21.3691 12.6865 21.7102 12.6865 22.1309V23.2383C12.9376 23.26 13.1916 23.2718 13.4482 23.2718C13.7049 23.2718 13.9588 23.26 14.21 23.2383V22.1309C14.21 21.7102 13.8689 21.3691 13.4482 21.3691Z" fill="#105C6E"/>
<path d="M22.1841 13.7241H21.0933C20.6726 13.7241 20.3315 14.0652 20.3315 14.4858C20.3315 14.9065 20.6726 15.2476 21.0933 15.2476H22.1841C22.2057 14.9964 22.2174 14.7425 22.2174 14.4858C22.2174 14.2292 22.2057 13.9752 22.1841 13.7241Z" fill="#105C6E"/>
<path d="M6.56506 14.4858C6.56506 14.0652 6.22402 13.7241 5.80334 13.7241H4.71251C4.69088 13.9752 4.6792 14.2292 4.6792 14.4858C4.6792 14.7425 4.69088 14.9964 4.71251 15.2476H5.80334C6.22402 15.2476 6.56506 14.9065 6.56506 14.4858Z" fill="#105C6E"/>
<path d="M15.3271 14.0466H14.2524V10.9658C14.2524 10.5451 13.9114 10.2041 13.4907 10.2041C13.0701 10.2041 12.729 10.5451 12.729 10.9658V14.8083C12.729 15.229 13.0701 15.57 13.4907 15.57H15.3271C15.7478 15.57 16.0888 15.229 16.0888 14.8083C16.0888 14.3876 15.7478 14.0466 15.3271 14.0466Z" fill="#105C6E"/>
</g>
<defs>
<clipPath id="clip0">
<rect width="26" height="26" fill="white" transform="translate(0.448242 0.188477)"/>
</clipPath>
</defs>
</svg>
