<svg width="26" height="27" viewBox="0 0 26 27" fill="none" xmlns="http://www.w3.org/2000/svg">
<g clip-path="url(#clip0)">
<path d="M23.573 23.6032H2.42702C1.59344 23.6032 0.917647 22.9274 0.917647 22.0937L0 4.28379C0 3.45016 0.675796 2.77441 1.50938 2.77441H24.4906C25.3242 2.77441 26 3.45021 26 4.28379L25.0823 22.0937C25.0824 22.9274 24.4066 23.6032 23.573 23.6032Z" fill="url(#paint0_linear)"/>
<path d="M24.4906 23.603H1.50938C0.675796 23.603 0 22.9272 0 22.0936C0 21.6726 0.173843 21.2703 0.480388 20.9818L11.8279 10.3032C12.4864 9.68345 13.5136 9.68345 14.1721 10.3032L25.5196 20.9818C25.8262 21.2703 26 21.6726 26 22.0936C26 22.9272 25.3242 23.603 24.4906 23.603Z" fill="url(#paint1_linear)"/>
<path d="M0.21582 18.1831V22.0939C0.21582 22.9275 0.880401 23.6032 1.70017 23.6032H24.2997C25.1194 23.6032 25.784 22.9274 25.784 22.0939V18.1831H0.21582Z" fill="url(#paint2_linear)"/>
<path d="M0 4.28384V22.0938C0 22.9274 0.675796 23.6032 1.50938 23.6032H2.48616V2.77441H1.50938C0.675796 2.77441 0 3.45021 0 4.28384H0Z" fill="#0088B3"/>
<path d="M0.53117 5.39561L19.9841 23.6032H24.4904C25.3241 23.6032 25.9998 22.9274 25.9998 22.0938V4.28388C25.9998 3.45025 25.324 2.87646 24.4904 2.87646H1.50918C0.675597 2.87641 0.0507812 3.45025 0.0507812 4.28388C0.0507812 4.70483 0.224624 5.10711 0.53117 5.39561Z" fill="url(#paint3_linear)"/>
<path d="M25.9998 4.28384V22.0938C25.9998 22.9274 25.324 23.6032 24.4905 23.6032H23.5137V2.77441H24.4905C25.324 2.77441 25.9998 3.45021 25.9998 4.28384Z" fill="url(#paint4_linear)"/>
<path d="M24.4905 2.87598H23.5137V12.1032H25.9998V4.3854C25.9998 3.55177 25.324 2.87598 24.4905 2.87598Z" fill="#0088B3"/>
<path d="M1.50938 2.87598H2.48616V12.1032H0V4.3854C0 3.55177 0.675796 2.87598 1.50938 2.87598Z" fill="#0088B3"/>
<path d="M24.4906 2.77441H1.50938C0.675796 2.77441 0 3.45021 0 4.28384C0 4.70484 0.173843 4.95418 0.480388 5.24268L11.8279 15.9213C12.4864 16.541 13.5136 16.541 14.1721 15.9213L25.5196 5.24263C25.8262 4.95413 26 4.70479 26 4.28384C26 3.45021 25.3242 2.77441 24.4906 2.77441Z" fill="url(#paint5_linear)"/>
<path d="M24.4596 2.77441C24.3995 2.77441 24.3416 2.79736 24.2979 2.8385L14.1726 12.367C13.514 12.9868 12.4869 12.9868 11.8283 12.367L1.70305 2.83855C1.65931 2.79736 1.60145 2.77441 1.54139 2.77441C0.771232 2.77441 0.101299 3.33923 0.0110633 4.10408C-0.0460856 4.58855 0.130918 5.06624 0.480898 5.39557L11.8284 16.0742C12.4869 16.6939 13.5141 16.6939 14.1726 16.0742L25.5201 5.39557C25.8701 5.06619 26.0471 4.58855 25.9899 4.10408C25.8997 3.33923 25.2297 2.77441 24.4596 2.77441Z" fill="#0088B3"/>
</g>
<defs>
<linearGradient id="paint0_linear" x1="11.1633" y1="8.26082" x2="19.3863" y2="25.9139" gradientUnits="userSpaceOnUse">
<stop stop-color="#E3E5E4"/>
<stop offset="1" stop-color="#CBD0E4"/>
</linearGradient>
<linearGradient id="paint1_linear" x1="10.5551" y1="19.6451" x2="14.8023" y2="23.8923" gradientUnits="userSpaceOnUse">
<stop stop-color="#EBEFF0"/>
<stop offset="1" stop-color="#E3E5E4"/>
</linearGradient>
<linearGradient id="paint2_linear" x1="12.9999" y1="20.3311" x2="12.9999" y2="24.6924" gradientUnits="userSpaceOnUse">
<stop stop-color="#CBD0E4" stop-opacity="0"/>
<stop offset="1" stop-color="#6A7D83"/>
</linearGradient>
<linearGradient id="paint3_linear" x1="21.4095" y1="13.1405" x2="18.2147" y2="9.77579" gradientUnits="userSpaceOnUse">
<stop stop-color="#CBD0E4" stop-opacity="0"/>
<stop offset="1" stop-color="#6A7D83"/>
</linearGradient>
<linearGradient id="paint4_linear" x1="24.6403" y1="13.1888" x2="26.2378" y2="13.1888" gradientUnits="userSpaceOnUse">
<stop stop-color="#0088B3"/>
<stop offset="1" stop-color="#F90217"/>
</linearGradient>
<linearGradient id="paint5_linear" x1="11.9501" y1="2.94484" x2="17.6489" y2="9.85931" gradientUnits="userSpaceOnUse">
<stop stop-color="#EBEFF0"/>
<stop offset="1" stop-color="#E3E5E4"/>
</linearGradient>
<clipPath id="clip0">
<rect width="26" height="26" fill="white" transform="translate(0 0.188477)"/>
</clipPath>
</defs>
</svg>
