<svg width="26" height="27" viewBox="0 0 26 27" fill="none" xmlns="http://www.w3.org/2000/svg">
<g clip-path="url(#clip0)">
<path d="M20.2322 21.7599L13.4072 26.0706C13.1613 26.2261 12.8444 26.2292 12.5937 26.0706L5.76866 21.7599C5.29584 21.461 5.29589 20.771 5.76866 20.4722L12.4951 16.2239C12.7408 16.0689 13.0548 16.0674 13.3 16.2189L20.2241 20.4672C20.7042 20.7611 20.7082 21.4588 20.2322 21.7599Z" fill="#59C36A"/>
<path d="M20.2322 21.7599L13.4072 26.0706C13.2828 26.1494 13.1417 26.1885 13.0005 26.1885V16.1128C13.2309 16.1432 12.7496 15.8812 20.2241 20.4672C20.7043 20.7612 20.7083 21.4589 20.2322 21.7599Z" fill="#00A66C"/>
<path d="M20.6333 10.9836C19.9813 12.8709 18.7915 14.4814 17.6413 16.0387C16.5078 17.5732 16.9523 16.989 13.625 21.7417C13.3225 22.1758 12.6782 22.1758 12.3758 21.7417C9.28561 17.3414 9.66678 17.8086 8.35947 16.0387C7.20927 14.4814 6.01947 12.8709 5.36744 10.9836C4.42392 8.25142 4.83169 5.54823 6.51611 3.37155C8.05833 1.37864 10.4826 0.188477 13.0004 0.188477C15.5181 0.188477 17.9424 1.37864 19.4846 3.37155C21.2375 5.63659 21.5376 8.36482 20.6333 10.9836Z" fill="#169CD8"/>
<path d="M20.6334 10.9836C19.9814 12.8709 18.7916 14.4814 17.6414 16.0387C16.5079 17.5732 16.9524 16.989 13.6251 21.7417C13.4829 21.9458 13.2493 22.0676 13.0005 22.0676V0.188477C15.5182 0.188477 17.9425 1.37864 19.4847 3.37155C21.2377 5.63659 21.5377 8.36482 20.6334 10.9836Z" fill="#0088B3"/>
<path d="M16.5404 8.38125C16.5404 10.3325 14.9524 11.9202 13.0004 11.9202C11.0484 11.9202 9.46045 10.3325 9.46045 8.38125C9.46045 6.42947 11.0484 4.8418 13.0004 4.8418C14.9524 4.8418 16.5404 6.42947 16.5404 8.38125Z" fill="#F0F7FF"/>
<path d="M16.5405 8.38125C16.5405 10.3325 14.9525 11.9202 13.0005 11.9202V4.8418C14.9525 4.8418 16.5405 6.42947 16.5405 8.38125Z" fill="#DFE7F4"/>
</g>
<defs>
<clipPath id="clip0">
<rect width="26" height="26" fill="white" transform="translate(0 0.188477)"/>
</clipPath>
</defs>
</svg>
