<svg width="175" height="152" viewBox="0 0 175 152" fill="none" xmlns="http://www.w3.org/2000/svg">
<path d="M11.5805 99.4246L16.7918 114.893C16.9205 115.242 17.0584 115.72 17.2054 116.327C17.3525 116.915 17.4168 117.421 17.3984 117.843L19.1079 117.733L19.0528 119.25H12.6007L12.6559 118.036C13.2809 118.018 13.7037 117.88 13.9242 117.623C14.1448 117.347 14.2367 117.016 14.2 116.63C14.1816 116.244 14.1173 115.858 14.007 115.472L13.3176 113.239L6.58985 113.404L5.67994 115.803C5.53288 116.171 5.38583 116.52 5.23877 116.851C5.1101 117.182 4.95385 117.503 4.77003 117.816L6.838 117.705L6.75528 119.25H1.43371L1.48886 118.009C2.18737 118.009 2.73883 117.696 3.14323 117.071C3.56602 116.428 3.97042 115.628 4.35644 114.672L10.5603 99.4246H11.5805ZM10.3398 103.616C10.1743 104.057 9.98131 104.553 9.76073 105.105C9.55853 105.656 9.33795 106.244 9.09898 106.869L7.1413 111.915H12.904L11.36 107.09C11.1761 106.502 10.9923 105.913 10.8085 105.325C10.6431 104.719 10.4868 104.149 10.3398 103.616ZM25.3362 119.553C23.5348 119.553 22.2113 119.001 21.3657 117.898C20.5385 116.796 20.1249 115.362 20.1249 113.597C20.1249 112.549 20.2628 111.52 20.5385 110.509C20.8326 109.498 21.2554 108.597 21.8069 107.807C22.3583 106.998 23.0476 106.355 23.8748 105.877C24.702 105.399 25.6671 105.16 26.77 105.16C27.4134 105.16 28.02 105.261 28.5898 105.463C29.178 105.665 29.656 105.978 30.0236 106.401C30.3912 106.805 30.575 107.329 30.575 107.972C30.575 108.616 30.3453 109.259 29.8857 109.902C29.4446 110.546 28.7277 111.106 27.735 111.584C28.6358 111.566 29.3435 111.704 29.8582 111.998C30.3728 112.292 30.7313 112.687 30.9335 113.183C31.1541 113.661 31.2644 114.158 31.2644 114.672C31.2644 115.592 31.007 116.419 30.4923 117.154C29.9776 117.889 29.2699 118.477 28.3692 118.919C27.4869 119.341 26.4759 119.553 25.3362 119.553ZM23.0201 112.136C24.2517 111.842 25.2075 111.511 25.8877 111.143C26.5862 110.775 27.0825 110.353 27.3766 109.875C27.6707 109.397 27.8178 108.836 27.8178 108.193C27.8545 106.998 27.4225 106.401 26.5218 106.401C25.8785 106.401 25.3086 106.658 24.8123 107.173C24.3344 107.687 23.9392 108.386 23.6267 109.268C23.3142 110.132 23.112 111.088 23.0201 112.136ZM22.9925 113.432C23.0476 114.884 23.3142 116.042 23.7921 116.906C24.27 117.751 25.0145 118.174 26.0255 118.174C26.8159 118.174 27.4317 117.917 27.8729 117.402C28.3325 116.869 28.5622 116.171 28.5622 115.307C28.5622 114.479 28.3141 113.799 27.8178 113.266C27.3214 112.733 26.5586 112.568 25.5292 112.77L22.9925 113.432ZM52.5084 119.553C51.5893 119.553 50.9644 119.314 50.6335 118.836C50.321 118.34 50.1647 117.641 50.1647 116.74C50.1647 116.042 50.2383 115.205 50.3853 114.231C50.5508 113.239 50.707 112.228 50.8541 111.198C51.0011 110.15 51.0746 109.213 51.0746 108.386C51.0746 108.037 50.9919 107.696 50.8265 107.366C50.6794 107.035 50.3761 106.869 49.9166 106.869C49.457 106.869 49.0067 107.099 48.5655 107.559C48.1243 108 47.7107 108.606 47.3247 109.378C46.9387 110.132 46.5895 110.978 46.277 111.915C45.9828 112.853 45.7531 113.808 45.5876 114.783C45.4222 115.757 45.3395 116.685 45.3395 117.568C45.3395 117.843 45.3395 118.128 45.3395 118.422C45.3579 118.698 45.3762 118.974 45.3946 119.25H42.6649C42.6465 119.029 42.6281 118.836 42.6098 118.67C42.6098 118.487 42.6098 118.312 42.6098 118.147C42.6098 117.43 42.6557 116.621 42.7476 115.72C42.8395 114.801 42.9406 113.873 43.0509 112.935C43.1796 111.998 43.2899 111.125 43.3818 110.316C43.4737 109.507 43.5105 108.836 43.4921 108.303C43.4737 107.954 43.391 107.632 43.2439 107.338C43.0969 107.026 42.8028 106.869 42.3616 106.869C41.9021 106.869 41.4517 107.099 41.0105 107.559C40.5694 108.018 40.1466 108.634 39.7422 109.406C39.3562 110.16 39.0069 111.005 38.6944 111.943C38.3819 112.88 38.1338 113.845 37.9499 114.838C37.7845 115.812 37.7018 116.74 37.7018 117.623C37.7018 117.88 37.711 118.156 37.7294 118.45C37.7477 118.744 37.7661 119.011 37.7845 119.25H35.0548C35.0364 119.029 35.018 118.863 34.9996 118.753C34.9996 118.625 34.9996 118.487 34.9996 118.34C34.9996 117.843 35.0364 117.209 35.1099 116.437C35.2018 115.665 35.3305 114.562 35.4959 113.128C35.643 111.933 35.7533 111.014 35.8268 110.371C35.9187 109.728 35.9739 109.241 35.9923 108.91C36.029 108.56 36.0474 108.257 36.0474 108C36.0474 107.687 36.0015 107.43 35.9095 107.228C35.836 107.026 35.6798 106.924 35.4408 106.924C35.1651 106.924 34.8618 107.117 34.5309 107.503C34.2 107.871 33.9059 108.514 33.6486 109.434L32.6284 109.185C32.7019 108.836 32.8214 108.441 32.9868 108C33.1706 107.54 33.4004 107.099 33.6761 106.676C33.9702 106.235 34.3287 105.877 34.7515 105.601C35.1743 105.307 35.6706 105.16 36.2404 105.16C37.0492 105.16 37.6099 105.435 37.9224 105.987C38.2532 106.538 38.4095 107.255 38.3911 108.138C38.3727 108.616 38.3268 109.066 38.2532 109.489C38.1797 109.893 38.1154 110.279 38.0602 110.647H38.1154C38.6485 109.158 39.1999 108.018 39.7698 107.228C40.3396 106.437 40.9002 105.895 41.4517 105.601C42.0215 105.307 42.5638 105.16 43.0785 105.16C43.777 105.16 44.3285 105.316 44.7329 105.628C45.1557 105.941 45.459 106.336 45.6428 106.814C45.845 107.292 45.9461 107.788 45.9461 108.303C45.9461 108.707 45.9185 109.066 45.8634 109.378C45.8266 109.673 45.7439 110.077 45.6152 110.592H45.6704C46.2218 109.103 46.7825 107.972 47.3523 107.2C47.9221 106.41 48.4828 105.877 49.0342 105.601C49.6041 105.307 50.1464 105.16 50.6611 105.16C51.7823 105.16 52.5636 105.527 53.0047 106.263C53.4643 106.98 53.6941 107.88 53.6941 108.965C53.6941 109.866 53.6205 110.803 53.4735 111.777C53.3448 112.751 53.2069 113.671 53.0599 114.535C52.9312 115.398 52.8669 116.115 52.8669 116.685C52.8669 117.016 52.9036 117.283 52.9772 117.485C53.0691 117.687 53.2437 117.788 53.5011 117.788C53.7584 117.788 54.0525 117.604 54.3834 117.237C54.7327 116.869 55.036 116.216 55.2933 115.279L56.3135 115.555C56.24 115.886 56.1113 116.281 55.9275 116.74C55.7437 117.2 55.4955 117.641 55.183 118.064C54.8705 118.487 54.4845 118.845 54.0249 119.139C53.5838 119.415 53.0783 119.553 52.5084 119.553ZM64.4186 105.16C65.4113 105.16 66.312 105.399 67.1208 105.877C67.9296 106.355 68.5638 107.044 69.0233 107.945C69.5012 108.845 69.7402 109.939 69.7402 111.226C69.7402 112.696 69.4737 114.066 68.9406 115.334C68.4075 116.603 67.6263 117.623 66.5969 118.395C65.5859 119.167 64.3635 119.553 62.9297 119.553C61.7165 119.553 60.7055 119.277 59.8967 118.726C59.1063 118.156 58.518 117.402 58.132 116.465C57.746 115.527 57.553 114.489 57.553 113.349C57.553 111.86 57.8287 110.5 58.3802 109.268C58.9316 108.018 59.7221 107.026 60.7514 106.29C61.7808 105.537 63.0032 105.16 64.4186 105.16ZM64.005 106.456C63.2698 106.437 62.6356 106.704 62.1025 107.255C61.5694 107.788 61.1558 108.514 60.8617 109.434C60.586 110.353 60.4389 111.373 60.4206 112.494C60.4206 113.101 60.4573 113.735 60.5309 114.397C60.6228 115.058 60.7698 115.683 60.972 116.272C61.1742 116.841 61.4591 117.31 61.8268 117.678C62.2128 118.045 62.6907 118.239 63.2606 118.257C63.9039 118.257 64.4462 118.064 64.8874 117.678C65.3469 117.273 65.7146 116.759 65.9903 116.134C66.2844 115.49 66.4958 114.81 66.6245 114.093C66.7715 113.376 66.8542 112.706 66.8726 112.081C66.8726 111.474 66.8359 110.849 66.7623 110.206C66.7072 109.544 66.5693 108.937 66.3487 108.386C66.1465 107.816 65.8524 107.356 65.4664 107.007C65.0988 106.64 64.6116 106.456 64.005 106.456ZM83.3765 119.553C82.6964 119.553 82.1449 119.341 81.7221 118.919C81.3177 118.496 81.1155 117.843 81.1155 116.961C81.1155 116.557 81.1523 116.033 81.2258 115.389C81.3177 114.728 81.4097 114.011 81.5016 113.239L76.6763 113.294C76.5844 113.974 76.5017 114.663 76.4281 115.362C76.3546 116.042 76.2903 116.713 76.2351 117.375C76.2168 117.742 76.2076 118.082 76.2076 118.395C76.2259 118.707 76.2535 118.992 76.2903 119.25H73.5054C73.487 119.066 73.4778 118.909 73.4778 118.781C73.4778 118.634 73.4778 118.487 73.4778 118.34C73.4778 117.825 73.5238 117.172 73.6157 116.382C73.726 115.592 73.8731 114.461 74.0569 112.99C74.2223 111.814 74.351 110.913 74.4429 110.288C74.5348 109.663 74.5991 109.195 74.6359 108.882C74.6727 108.551 74.6911 108.257 74.6911 108C74.6911 107.687 74.6451 107.43 74.5532 107.228C74.4797 107.026 74.305 106.924 74.0293 106.924C73.772 106.924 73.4778 107.117 73.147 107.503C72.8161 107.871 72.5036 108.514 72.2095 109.434L71.1893 109.185C71.2628 108.836 71.4007 108.441 71.6029 108C71.8051 107.54 72.0624 107.099 72.3749 106.676C72.7058 106.235 73.0918 105.877 73.533 105.601C73.9742 105.307 74.4797 105.16 75.0495 105.16C76.0054 105.16 76.6212 105.518 76.8969 106.235C77.1726 106.952 77.2645 107.862 77.1726 108.965C77.1359 109.388 77.0807 109.856 77.0072 110.371C76.952 110.867 76.8969 111.382 76.8417 111.915H81.667C81.8141 110.72 81.9152 109.645 81.9703 108.689C82.0438 107.715 82.053 106.64 81.9979 105.463H84.7552C84.7919 105.665 84.8103 105.831 84.8103 105.959C84.8103 106.088 84.8103 106.226 84.8103 106.373C84.8103 106.814 84.7736 107.402 84.7 108.138C84.6265 108.855 84.5346 109.645 84.4243 110.509C84.3324 111.354 84.2313 112.191 84.121 113.018C84.0107 113.845 83.9188 114.59 83.8453 115.251C83.7901 115.913 83.7625 116.4 83.7625 116.713C83.7625 117.411 83.9647 117.761 84.3691 117.761C84.6449 117.761 84.9482 117.577 85.2791 117.209C85.6099 116.841 85.904 116.198 86.1614 115.279L87.1816 115.527C87.1081 115.876 86.9702 116.281 86.768 116.74C86.5842 117.182 86.336 117.623 86.0235 118.064C85.711 118.487 85.3342 118.845 84.893 119.139C84.4519 119.415 83.9464 119.553 83.3765 119.553ZM95.2497 105.16C96.2423 105.16 97.143 105.399 97.9518 105.877C98.7606 106.355 99.3948 107.044 99.8544 107.945C100.332 108.845 100.571 109.939 100.571 111.226C100.571 112.696 100.305 114.066 99.7716 115.334C99.2386 116.603 98.4573 117.623 97.4279 118.395C96.4169 119.167 95.1945 119.553 93.7607 119.553C92.5475 119.553 91.5365 119.277 90.7277 118.726C89.9373 118.156 89.3491 117.402 88.9631 116.465C88.577 115.527 88.384 114.489 88.384 113.349C88.384 111.86 88.6598 110.5 89.2112 109.268C89.7627 108.018 90.5531 107.026 91.5825 106.29C92.6119 105.537 93.8343 105.16 95.2497 105.16ZM94.8361 106.456C94.1008 106.437 93.4666 106.704 92.9336 107.255C92.4005 107.788 91.9869 108.514 91.6928 109.434C91.417 110.353 91.27 111.373 91.2516 112.494C91.2516 113.101 91.2884 113.735 91.3619 114.397C91.4538 115.058 91.6009 115.683 91.8031 116.272C92.0053 116.841 92.2902 117.31 92.6578 117.678C93.0438 118.045 93.5218 118.239 94.0916 118.257C94.735 118.257 95.2773 118.064 95.7184 117.678C96.178 117.273 96.5456 116.759 96.8213 116.134C97.1154 115.49 97.3268 114.81 97.4555 114.093C97.6026 113.376 97.6853 112.706 97.7037 112.081C97.7037 111.474 97.6669 110.849 97.5934 110.206C97.5382 109.544 97.4004 108.937 97.1798 108.386C96.9776 107.816 96.6835 107.356 96.2975 107.007C95.9298 106.64 95.4427 106.456 94.8361 106.456ZM102.785 119.525C102.197 119.525 101.719 119.36 101.351 119.029C100.983 118.698 100.8 118.303 100.8 117.843C100.8 117.439 100.937 117.09 101.213 116.796C101.507 116.483 101.866 116.327 102.289 116.327C102.619 116.327 102.914 116.437 103.171 116.658C103.428 116.878 103.557 117.163 103.557 117.512C103.557 117.641 103.548 117.761 103.529 117.871C104.209 117.797 104.917 116.832 105.652 114.976C106.388 113.101 107.169 110.38 107.996 106.814L105.349 106.842L105.459 105.463H111.718C111.81 105.867 111.856 106.364 111.856 106.952C111.856 108.496 111.847 110.031 111.829 111.557C111.81 113.082 111.838 114.59 111.911 116.079C111.93 116.593 111.957 116.961 111.994 117.182C112.049 117.384 112.16 117.485 112.325 117.485C112.527 117.485 112.84 117.09 113.263 116.299C113.704 115.49 114.264 114.204 114.944 112.439C115.643 110.674 116.461 108.349 117.398 105.463H120.707C120.744 105.665 120.762 105.831 120.762 105.959C120.762 106.088 120.762 106.226 120.762 106.373C120.762 106.814 120.726 107.402 120.652 108.138C120.579 108.855 120.477 109.645 120.349 110.509C120.238 111.354 120.128 112.191 120.018 113.018C119.908 113.845 119.807 114.59 119.715 115.251C119.641 115.913 119.604 116.4 119.604 116.713C119.604 117.044 119.65 117.301 119.742 117.485C119.834 117.669 119.99 117.761 120.211 117.761C120.487 117.761 120.79 117.577 121.121 117.209C121.452 116.841 121.755 116.198 122.031 115.279L123.051 115.527C122.977 115.876 122.84 116.281 122.637 116.74C122.454 117.182 122.196 117.623 121.865 118.064C121.553 118.487 121.167 118.845 120.707 119.139C120.266 119.415 119.751 119.553 119.163 119.553C118.501 119.553 117.968 119.341 117.564 118.919C117.178 118.477 116.985 117.816 116.985 116.933C116.985 116.364 117.058 115.573 117.205 114.562C117.371 113.533 117.555 112.411 117.757 111.198C117.959 109.967 118.134 108.744 118.281 107.531H118.088C117.279 109.829 116.58 111.75 115.992 113.294C115.404 114.838 114.862 116.069 114.365 116.989C113.869 117.908 113.373 118.569 112.877 118.974C112.38 119.36 111.829 119.553 111.222 119.553C110.579 119.553 110.11 119.295 109.816 118.781C109.522 118.266 109.366 117.375 109.347 116.106C109.329 115.5 109.32 114.801 109.32 114.011C109.338 113.202 109.347 112.384 109.347 111.557C109.366 110.729 109.393 109.967 109.43 109.268C109.467 108.551 109.522 107.972 109.595 107.531H109.292C108.612 110.104 107.978 112.283 107.39 114.066C106.82 115.849 106.176 117.209 105.459 118.147C104.761 119.066 103.869 119.525 102.785 119.525ZM135.803 119.553C135.123 119.553 134.571 119.341 134.148 118.919C133.744 118.496 133.542 117.843 133.542 116.961C133.542 116.557 133.579 116.033 133.652 115.389C133.744 114.728 133.836 114.011 133.928 113.239L129.103 113.294C129.011 113.974 128.928 114.663 128.854 115.362C128.781 116.042 128.717 116.713 128.661 117.375C128.643 117.742 128.634 118.082 128.634 118.395C128.652 118.707 128.68 118.992 128.717 119.25H125.932C125.913 119.066 125.904 118.909 125.904 118.781C125.904 118.634 125.904 118.487 125.904 118.34C125.904 117.825 125.95 117.172 126.042 116.382C126.152 115.592 126.299 114.461 126.483 112.99C126.649 111.814 126.777 110.913 126.869 110.288C126.961 109.663 127.025 109.195 127.062 108.882C127.099 108.551 127.117 108.257 127.117 108C127.117 107.687 127.071 107.43 126.979 107.228C126.906 107.026 126.731 106.924 126.456 106.924C126.198 106.924 125.904 107.117 125.573 107.503C125.242 107.871 124.93 108.514 124.636 109.434L123.616 109.185C123.689 108.836 123.827 108.441 124.029 108C124.231 107.54 124.489 107.099 124.801 106.676C125.132 106.235 125.518 105.877 125.959 105.601C126.4 105.307 126.906 105.16 127.476 105.16C128.432 105.16 129.047 105.518 129.323 106.235C129.599 106.952 129.691 107.862 129.599 108.965C129.562 109.388 129.507 109.856 129.433 110.371C129.378 110.867 129.323 111.382 129.268 111.915H134.093C134.24 110.72 134.341 109.645 134.397 108.689C134.47 107.715 134.479 106.64 134.424 105.463H137.181C137.218 105.665 137.237 105.831 137.237 105.959C137.237 106.088 137.237 106.226 137.237 106.373C137.237 106.814 137.2 107.402 137.126 108.138C137.053 108.855 136.961 109.645 136.851 110.509C136.759 111.354 136.658 112.191 136.547 113.018C136.437 113.845 136.345 114.59 136.271 115.251C136.216 115.913 136.189 116.4 136.189 116.713C136.189 117.411 136.391 117.761 136.795 117.761C137.071 117.761 137.374 117.577 137.705 117.209C138.036 116.841 138.33 116.198 138.588 115.279L139.608 115.527C139.534 115.876 139.396 116.281 139.194 116.74C139.01 117.182 138.762 117.623 138.45 118.064C138.137 118.487 137.76 118.845 137.319 119.139C136.878 119.415 136.373 119.553 135.803 119.553ZM146.49 119.553C144.983 119.553 143.917 119.139 143.292 118.312C142.685 117.466 142.465 116.428 142.63 115.196C142.887 113.524 143.08 112.228 143.209 111.309C143.356 110.371 143.457 109.682 143.512 109.241C143.568 108.781 143.604 108.432 143.623 108.193C143.659 107.825 143.641 107.522 143.568 107.283C143.494 107.044 143.329 106.924 143.071 106.924C142.777 106.924 142.455 107.127 142.106 107.531C141.775 107.917 141.472 108.551 141.196 109.434L140.176 109.185C140.305 108.671 140.525 108.101 140.838 107.476C141.169 106.851 141.601 106.309 142.134 105.849C142.667 105.39 143.31 105.16 144.064 105.16C144.781 105.16 145.305 105.362 145.636 105.766C145.966 106.152 146.15 106.667 146.187 107.31C146.242 107.935 146.224 108.616 146.132 109.351L145.884 110.95C146.306 110.729 146.729 110.564 147.152 110.454C147.593 110.343 148.025 110.288 148.448 110.288C149.624 110.288 150.608 110.628 151.398 111.309C152.189 111.97 152.566 112.954 152.529 114.259C152.51 115.27 152.235 116.18 151.702 116.989C151.187 117.779 150.479 118.404 149.578 118.863C148.678 119.323 147.648 119.553 146.49 119.553ZM156.058 119.553C155.378 119.553 154.826 119.341 154.404 118.919C153.999 118.496 153.797 117.843 153.797 116.961C153.797 116.483 153.843 115.867 153.935 115.114C154.045 114.342 154.156 113.496 154.266 112.577C154.395 111.658 154.505 110.72 154.597 109.764C154.689 108.79 154.735 107.871 154.735 107.007C154.735 106.75 154.725 106.492 154.707 106.235C154.689 105.978 154.679 105.72 154.679 105.463H157.437C157.473 105.665 157.492 105.831 157.492 105.959C157.492 106.088 157.492 106.226 157.492 106.373C157.492 106.814 157.455 107.402 157.382 108.138C157.308 108.855 157.216 109.645 157.106 110.509C157.014 111.354 156.913 112.191 156.803 113.018C156.692 113.845 156.6 114.59 156.527 115.251C156.472 115.913 156.444 116.4 156.444 116.713C156.444 117.411 156.646 117.761 157.051 117.761C157.326 117.761 157.63 117.577 157.961 117.209C158.291 116.841 158.586 116.198 158.843 115.279L159.863 115.527C159.79 115.876 159.661 116.281 159.477 116.74C159.293 117.182 159.036 117.623 158.705 118.064C158.393 118.487 158.016 118.845 157.575 119.139C157.133 119.415 156.628 119.553 156.058 119.553ZM145.222 115.279C145.075 116.235 145.194 116.961 145.58 117.457C145.985 117.935 146.527 118.174 147.207 118.174C148.034 118.174 148.687 117.889 149.165 117.319C149.643 116.75 149.9 115.913 149.937 114.81C149.974 113.781 149.836 112.981 149.523 112.411C149.229 111.823 148.705 111.529 147.952 111.529C147.235 111.529 146.472 111.777 145.663 112.274L145.222 115.279ZM167.869 105.16C168.586 105.16 169.238 105.27 169.827 105.491C170.433 105.693 170.92 106.042 171.288 106.538C171.656 107.016 171.839 107.651 171.839 108.441C171.839 109.195 171.591 109.838 171.095 110.371C170.599 110.904 169.955 111.354 169.165 111.722C168.374 112.071 167.52 112.356 166.601 112.577C165.682 112.779 164.799 112.935 163.954 113.046C163.954 114.7 164.211 115.904 164.726 116.658C165.259 117.411 165.976 117.788 166.876 117.788C167.575 117.788 168.31 117.558 169.082 117.099C169.854 116.639 170.525 115.83 171.095 114.672L172.225 115.279C171.435 116.841 170.553 117.944 169.578 118.588C168.604 119.231 167.52 119.553 166.325 119.553C164.597 119.553 163.292 119.029 162.41 117.981C161.527 116.915 161.086 115.444 161.086 113.569C161.086 112.558 161.224 111.557 161.5 110.564C161.775 109.571 162.189 108.671 162.74 107.862C163.31 107.035 164.018 106.382 164.864 105.904C165.709 105.408 166.711 105.16 167.869 105.16ZM167.511 106.401C166.738 106.401 166.104 106.667 165.608 107.2C165.13 107.715 164.762 108.386 164.505 109.213C164.248 110.04 164.082 110.895 164.009 111.777C164.983 111.63 165.865 111.4 166.656 111.088C167.446 110.757 168.071 110.353 168.531 109.875C168.99 109.378 169.22 108.827 169.22 108.22C169.22 107.669 169.064 107.228 168.751 106.897C168.457 106.566 168.044 106.401 167.511 106.401Z" fill="#595959"/>
<path d="M9.95094 139.239H7.62179V147.25H3.58279V127.647H7.62179V135.496H9.46626L14.2592 127.647H19.1868L13.1418 136.923L19.8196 147.25H14.9997L9.95094 139.239ZM29.567 147.25C29.3875 146.899 29.2574 146.464 29.1766 145.944C28.2342 146.994 27.009 147.519 25.5011 147.519C24.074 147.519 22.8892 147.106 21.9468 146.28C21.0133 145.454 20.5466 144.413 20.5466 143.157C20.5466 141.613 21.1165 140.428 22.2564 139.602C23.4053 138.777 25.0613 138.359 27.2244 138.35H29.015V137.516C29.015 136.842 28.84 136.304 28.49 135.9C28.1489 135.496 27.6059 135.294 26.8609 135.294C26.2057 135.294 25.6896 135.451 25.3126 135.765C24.9446 136.079 24.7606 136.51 24.7606 137.058H20.8697C20.8697 136.214 21.13 135.433 21.6506 134.715C22.1712 133.997 22.9072 133.436 23.8586 133.032C24.81 132.619 25.8781 132.413 27.0628 132.413C28.858 132.413 30.2806 132.866 31.3307 133.773C32.3898 134.67 32.9194 135.936 32.9194 137.569V143.884C32.9284 145.266 33.1213 146.312 33.4983 147.021V147.25H29.567ZM26.3493 144.543C26.9237 144.543 27.4533 144.418 27.938 144.166C28.4226 143.906 28.7817 143.561 29.015 143.13V140.626H27.561C25.6133 140.626 24.5766 141.299 24.451 142.645L24.4375 142.874C24.4375 143.359 24.608 143.758 24.9491 144.072C25.2902 144.386 25.7569 144.543 26.3493 144.543ZM48.5369 147.25H44.6325V141.649H39.7992V147.25H35.9083V132.682H39.7992V138.525H44.6325V132.682H48.5369V147.25ZM59.9942 147.25C59.8147 146.899 59.6845 146.464 59.6037 145.944C58.6613 146.994 57.4361 147.519 55.9282 147.519C54.5011 147.519 53.3163 147.106 52.3739 146.28C51.4405 145.454 50.9737 144.413 50.9737 143.157C50.9737 141.613 51.5437 140.428 52.6836 139.602C53.8324 138.777 55.4884 138.359 57.6515 138.35H59.4422V137.516C59.4422 136.842 59.2671 136.304 58.9171 135.9C58.576 135.496 58.033 135.294 57.288 135.294C56.6328 135.294 56.1167 135.451 55.7397 135.765C55.3717 136.079 55.1878 136.51 55.1878 137.058H51.2968C51.2968 136.214 51.5571 135.433 52.0777 134.715C52.5983 133.997 53.3343 133.436 54.2857 133.032C55.2371 132.619 56.3052 132.413 57.49 132.413C59.2851 132.413 60.7077 132.866 61.7579 133.773C62.817 134.67 63.3465 135.936 63.3465 137.569V143.884C63.3555 145.266 63.5485 146.312 63.9255 147.021V147.25H59.9942ZM56.7764 144.543C57.3509 144.543 57.8804 144.418 58.3651 144.166C58.8498 143.906 59.2088 143.561 59.4422 143.13V140.626H57.9881C56.0404 140.626 55.0038 141.299 54.8781 142.645L54.8646 142.874C54.8646 143.359 55.0352 143.758 55.3762 144.072C55.7173 144.386 56.184 144.543 56.7764 144.543ZM79.0044 132.682V147.25H75.1135V135.833H71.6803L71.438 140.329C71.2854 142.726 70.8142 144.472 70.0243 145.567C69.2345 146.662 68.0587 147.223 66.4969 147.25H65.1775L65.1372 144.086L65.6218 144.045C66.3219 143.991 66.8335 143.579 67.1567 142.807C67.4798 142.035 67.6817 140.72 67.7625 138.862L68.0318 132.682H79.0044ZM90.7848 132.682H94.6757V147.25H90.7848V138.256L85.9111 147.25H82.0067V132.682H85.9111V141.662L90.7848 132.682ZM105.298 136.977C105.298 136.465 105.128 136.07 104.787 135.792C104.455 135.505 103.979 135.361 103.36 135.361C102.722 135.361 102.202 135.496 101.798 135.765C101.403 136.026 101.205 136.398 101.205 136.883H97.3145C97.3145 135.563 97.862 134.491 98.9571 133.665C100.052 132.839 101.452 132.426 103.158 132.426C105.034 132.426 106.505 132.794 107.574 133.53C108.651 134.266 109.189 135.312 109.189 136.667C109.189 137.314 108.992 137.91 108.597 138.458C108.211 138.996 107.663 139.427 106.954 139.75C108.615 140.334 109.445 141.46 109.445 143.13C109.445 144.467 108.871 145.535 107.722 146.334C106.582 147.124 105.06 147.519 103.158 147.519C101.389 147.519 99.9354 147.106 98.7955 146.28C97.6556 145.454 97.0856 144.341 97.0856 142.941H100.977C100.977 143.435 101.196 143.834 101.636 144.139C102.076 144.445 102.65 144.597 103.36 144.597C104.051 144.597 104.589 144.436 104.975 144.113C105.361 143.789 105.554 143.368 105.554 142.847C105.554 142.21 105.37 141.756 105.002 141.487C104.634 141.209 104.082 141.07 103.346 141.07H101.232V138.539H103.481C104.692 138.503 105.298 137.982 105.298 136.977ZM120.256 147.25C120.077 146.899 119.946 146.464 119.866 145.944C118.923 146.994 117.698 147.519 116.19 147.519C114.763 147.519 113.578 147.106 112.636 146.28C111.702 145.454 111.236 144.413 111.236 143.157C111.236 141.613 111.806 140.428 112.945 139.602C114.094 138.777 115.75 138.359 117.913 138.35H119.704V137.516C119.704 136.842 119.529 136.304 119.179 135.9C118.838 135.496 118.295 135.294 117.55 135.294C116.895 135.294 116.379 135.451 116.002 135.765C115.634 136.079 115.45 136.51 115.45 137.058H111.559C111.559 136.214 111.819 135.433 112.34 134.715C112.86 133.997 113.596 133.436 114.548 133.032C115.499 132.619 116.567 132.413 117.752 132.413C119.547 132.413 120.97 132.866 122.02 133.773C123.079 134.67 123.608 135.936 123.608 137.569V143.884C123.617 145.266 123.81 146.312 124.187 147.021V147.25H120.256ZM117.038 144.543C117.613 144.543 118.142 144.418 118.627 144.166C119.112 143.906 119.471 143.561 119.704 143.13V140.626H118.25C116.302 140.626 115.266 141.299 115.14 142.645L115.127 142.874C115.127 143.359 115.297 143.758 115.638 144.072C115.979 144.386 116.446 144.543 117.038 144.543ZM126.597 132.682H130.488V144.113H135.362V132.682H139.266V144.139H141.447L141.178 151.571H137.556V147.25H126.597V132.682ZM152.178 132.682H156.069V147.25H152.178V138.256L147.304 147.25H143.4V132.682H147.304V141.662L152.178 132.682ZM167.822 132.682H171.713V147.25H167.822V138.256L162.948 147.25H159.044V132.682H162.948V141.662L167.822 132.682Z" fill="#3C8000"/>
<path d="M103.783 55.1015C102.878 37.0905 89.1437 18.5861 74.9981 -0.000488281C60.8526 18.5861 47.2005 37.0905 46.2958 55.1015C45.4734 70.7274 54.8489 87.3402 75.0804 87.3402C95.2296 87.3402 104.605 70.8096 103.783 55.1015Z" fill="#00BDF2"/>
<path d="M103.783 55.1015C102.878 37.0905 89.1441 18.5861 74.9985 -0.000488281V87.3402C95.23 87.3402 104.606 70.8096 103.783 55.1015Z" fill="#00A3E0"/>
<path d="M75.0799 79.3625C87.7978 79.3625 98.1076 69.0526 98.1076 56.3348C98.1076 43.617 87.7978 33.3071 75.0799 33.3071C62.3621 33.3071 52.0522 43.617 52.0522 56.3348C52.0522 69.0526 62.3621 79.3625 75.0799 79.3625Z" fill="white"/>
<path d="M87.7451 58.9673C87.7451 59.214 87.8274 59.3785 87.8274 59.6252C87.8274 59.3785 87.7451 59.214 87.7451 58.9673Z" fill="#90C74F"/>
<path d="M87.4162 57.075C87.4984 57.3217 87.5807 57.6507 87.5807 57.8974C86.1826 50.8246 80.8369 43.6696 75.3267 36.3501C75.4089 39.4753 75.4089 42.6005 75.4089 45.7257C76.1491 45.2322 76.807 44.6565 77.3827 43.9163C77.5472 43.6696 77.9584 43.9163 77.7939 44.1631C77.2182 44.9855 76.3958 45.8901 75.4089 46.4658C75.4089 48.3574 75.4089 50.3312 75.4089 52.2227C76.6425 51.4003 77.8762 50.4134 78.6986 49.0976C78.8631 48.8508 79.192 49.0976 79.0275 49.262C78.5341 50.1667 77.8762 50.9891 77.136 51.7293C76.6425 52.2227 76.0668 52.7162 75.4089 53.0452C75.4089 54.4433 75.4089 55.8414 75.4089 57.2395C75.4089 57.404 75.4089 57.5685 75.4089 57.7329C77.2182 56.5816 79.0275 55.3479 80.6724 53.8676C80.9191 53.6209 81.4125 54.0321 81.0836 54.2788C80.0144 55.3479 78.8631 56.2526 77.6294 57.1572C76.8893 57.6507 76.2313 58.2264 75.4089 58.6376C75.4089 60.5292 75.4911 62.503 75.4911 64.4768C78.2874 63.4076 81.1658 62.3385 83.0574 59.9535C83.3041 59.6245 83.7976 60.0357 83.5508 60.3647C82.4817 61.845 81.0836 62.9142 79.4387 63.7366C78.2051 64.3945 76.8893 65.2169 75.4911 65.5459C75.4911 65.8749 75.4911 66.1216 75.4911 66.4506C80.4256 66.1216 84.7845 62.4207 87.4162 57.075Z" fill="#90C74F"/>
<path d="M87.8276 59.8716C87.8276 60.1183 87.9099 60.4473 87.9099 60.694C87.9099 60.365 87.9099 60.1183 87.8276 59.8716Z" fill="#90C74F"/>
<path d="M87.5811 58.062C87.6633 58.3087 87.6633 58.5555 87.6633 58.7199C87.6633 58.5555 87.6633 58.3087 87.5811 58.062Z" fill="#90C74F"/>
<path d="M87.9093 60.6933C87.9093 60.4466 87.9093 60.1177 87.827 59.8709C87.827 59.7887 87.827 59.7064 87.827 59.6242C87.827 59.3775 87.7448 59.213 87.7448 58.9663C87.7448 58.884 87.7448 58.8018 87.7448 58.7195C87.7448 58.4728 87.6626 58.2261 87.6626 58.0616C87.6626 57.9794 87.6626 57.9794 87.6626 57.8971C87.5803 57.6504 87.5803 57.3214 87.4981 57.0747C84.8663 62.5027 80.5898 66.1213 75.6553 66.4503C75.6553 67.1082 75.6553 67.8484 75.6553 68.5063C75.6553 68.753 75.6553 68.9175 75.6553 69.1642C75.6553 69.6577 75.6553 70.1511 75.6553 70.6446C77.1356 70.0689 78.7805 69.7399 80.2608 68.9998C81.9056 68.0951 83.2215 67.026 84.5374 65.7101C84.7841 65.4634 85.1131 65.7923 84.8663 66.0391C82.6458 68.6708 79.2739 71.2203 75.6553 71.6315V71.7137C75.6553 72.0427 75.6553 72.3717 75.6553 72.7829C75.6553 73.523 75.6553 74.2632 75.6553 75.0034C84.2084 74.7567 88.3205 67.5194 87.9093 60.6933Z" fill="#6EA737"/>
<path d="M62.3332 58.9673C62.3332 59.214 62.251 59.3785 62.251 59.6252C62.251 59.3785 62.3332 59.214 62.3332 58.9673Z" fill="#90C74F"/>
<path d="M62.6616 57.075C62.5793 57.3217 62.4971 57.6507 62.4971 57.8974C63.8952 50.8246 69.2409 43.6696 74.7511 36.3501C74.6688 39.4753 74.6688 42.6005 74.6688 45.7257C73.9287 45.2322 73.2707 44.6565 72.695 43.9163C72.5306 43.6696 72.1194 43.9163 72.2838 44.1631C72.8595 44.9855 73.6819 45.8901 74.6688 46.4658C74.6688 48.3574 74.6688 50.3312 74.6688 52.2227C73.4352 51.4003 72.2016 50.4134 71.3792 49.0976C71.2147 48.8508 70.8857 49.0976 71.0502 49.262C71.5437 50.1667 72.2016 50.9891 72.9418 51.7293C73.4352 52.2227 74.0109 52.7162 74.6688 53.0452C74.6688 54.4433 74.6688 55.8414 74.6688 57.2395C74.6688 57.404 74.6688 57.5685 74.6688 57.7329C72.8595 56.5816 71.0502 55.3479 69.4054 53.8676C69.1587 53.6209 68.6652 54.0321 68.9942 54.2788C70.0633 55.3479 71.2147 56.2526 72.4483 57.1572C73.1885 57.6507 73.8464 58.2264 74.6688 58.6376C74.6688 60.5292 74.5866 62.503 74.5866 64.4768C71.7904 63.4076 68.9119 62.3385 67.0204 59.9535C66.7736 59.6245 66.2802 60.0357 66.5269 60.3647C67.5961 61.845 68.9942 62.9142 70.639 63.7366C71.8726 64.3945 73.1885 65.2169 74.5866 65.5459C74.5866 65.8749 74.5866 66.1216 74.5866 66.4506C69.6521 66.1216 65.2933 62.4207 62.6616 57.075Z" fill="#90C74F"/>
<path d="M62.2507 59.8716C62.2507 60.1183 62.1685 60.4473 62.1685 60.694C62.1685 60.365 62.1685 60.1183 62.2507 59.8716Z" fill="#90C74F"/>
<path d="M62.4968 58.062C62.4145 58.3087 62.4146 58.5555 62.4146 58.7199C62.4146 58.5555 62.4145 58.3087 62.4968 58.062Z" fill="#90C74F"/>
<path d="M62.1677 60.6933C62.1677 60.4466 62.1677 60.1177 62.2499 59.8709C62.2499 59.7887 62.2499 59.7064 62.2499 59.6242C62.2499 59.3775 62.3322 59.213 62.3322 58.9663C62.3322 58.884 62.3322 58.8018 62.3322 58.7195C62.3322 58.4728 62.4144 58.2261 62.4144 58.0616C62.4144 57.9794 62.4144 57.9794 62.4144 57.8971C62.4967 57.6504 62.4967 57.3214 62.5789 57.0747C65.2106 62.5027 69.4872 66.1213 74.4217 66.4503C74.4217 67.1082 74.4217 67.8484 74.4217 68.5063C74.4217 68.753 74.4217 68.9175 74.4217 69.1642C74.4217 69.6577 74.4217 70.1511 74.4217 70.6446C72.9414 70.0689 71.2965 69.7399 69.8162 68.9998C68.1713 68.0951 66.8555 67.026 65.5396 65.7101C65.2929 65.4634 64.9639 65.7923 65.2106 66.0391C67.4312 68.6708 70.8031 71.2203 74.4217 71.6315V71.7137C74.4217 72.0427 74.4217 72.3717 74.4217 72.7829C74.4217 73.523 74.4217 74.2632 74.4217 75.0034C65.8686 74.7567 61.7565 67.5194 62.1677 60.6933Z" fill="#6EA737"/>
</svg>
