<svg width="60" height="60" viewBox="0 0 60 60" fill="none" xmlns="http://www.w3.org/2000/svg">
<g clip-path="url(#clip0)">
<path d="M53.1245 -0.000488281H6.87451C3.08201 -0.000488281 -0.000488281 3.08201 -0.000488281 6.87451V53.1245C-0.000488281 56.917 3.08201 59.9995 6.87451 59.9995H53.1245C56.917 59.9995 59.9995 56.917 59.9995 53.1245V6.87451C59.9995 3.08201 56.917 -0.000488281 53.1245 -0.000488281Z" fill="#9EE95D"/>
<path d="M33.1244 47.4996H26.8744C25.1519 47.4996 23.7494 46.0971 23.7494 44.3746V29.9996H16.8744C15.2269 29.9996 14.3794 28.0196 15.5194 26.8296L28.6444 13.0796C29.3519 12.3396 30.6494 12.3396 31.3569 13.0796L44.4819 26.8296C45.6194 28.0196 44.7719 29.9996 43.1244 29.9996H36.2494V44.3746C36.2494 46.0971 34.8469 47.4996 33.1244 47.4996Z" fill="white"/>
</g>
<defs>
<clipPath id="clip0">
<rect width="60" height="60" fill="white" transform="translate(-0.000488281 -0.000488281)"/>
</clipPath>
</defs>
</svg>
